<?xml version="1.0" encoding="UTF-8"?>
<svg id="Layer_1" data-name="Layer 1" xmlns="http://www.w3.org/2000/svg" viewBox="0 0 1500 489.61">
  <defs>
    <style>
      .cls-1 {
        fill: #444545;
      }

      .cls-2 {
        fill: #dddfd9;
      }

      .cls-3 {
        fill: #4d4d4f;
      }

      .cls-4 {
        fill: #adb182;
      }
    </style>
  </defs>
  <g>
    <path class="cls-2" d="m319.18,122.86l-24.21,41.17c-1.37,1.98-2.79,3.94-4.23,5.87-3.77,5.07-7.81,10.05-12.89,13.8-9.75,7.22-21.74,8.42-33,4.51-5.13-1.79-10.27-4.32-15.61-7.07-4.92-2.32-9.8-4.84-15.14-6.86-10.84-4.3-24.86-4.81-34.61,2.7-12.62,9.31-16.09,26.01-15.03,40.66.57,8.48,2.75,16.98,4.9,25.06,2.67,9.46,5.62,18.8,8.78,28.08,1.36,4.02,2.76,8.02,4.2,12.02.72,2.01,2.26,7,3.87,13.08,1.67,6.28,2.7,11.26,3.74,17.76-35.8-10.14-63.66-37.64-70.14-76.61-3.14-18.91-.55-37.5,6.47-54.04,15.55-36.67,51.95-60.13,91.78-60.13h101.11Z"/>
    <path class="cls-4" d="m359.84,191.58c-6.27-4.51-13.1-8.3-20.35-11.26-8.73,57.04-19.37,133.9-36.8,162.32-.77,1.22-1.65,2.16-2.59,2.84-.04.03-.07.06-.11.08-1.07.81-2.4,1.28-3.84,1.28-1.85,0-3.53-.79-4.7-2.05l-.02-.02c-.85-.81-1.61-1.87-2.22-3.15-3.62-7.91-5.69-41.67-7.44-50.08-1.33-6.36-3.84-12.52-8.51-17.15-2.23-2.21-4.85-3.97-7.75-5-1.43-.42-2.93-.64-4.48-.64-4.27,0-8.52,1.69-11.43,4.84-.14.16-.28.3-.41.46-8.54,9.87-11.59,24.14-14.06,36.57-.83,4.14-1.5,8.31-2.01,12.51h0s-3.61,27.39-12.01,35.78c-8.4,8.4-23.73,12.21-23.73,12.21h103.87c54.43,0,99.96-44.53,100-98.96.03-33.16-16.33-62.56-41.4-80.56Z"/>
  </g>
  <g>
    <path class="cls-1" d="m703.24,263.34c4.59-2.01,9.24-5.29,13.92-9.81,5.67-5.33,9.99-11.96,12.97-19.87,3-7.91,4.48-15.75,4.48-23.51,0-8.72-1.85-16.91-5.56-24.59-3.73-7.68-8.97-14.19-15.77-19.51-6.46-5-13.45-8.29-20.97-9.81-7.5-1.54-15.3-2.31-23.39-2.31h-55.49v31.26h55.26c4.2,0,8.23.57,12.13,1.7,3.87,1.13,7.3,2.83,10.29,5.09,2.98,2.26,5.36,5.13,7.14,8.59,1.78,3.48,2.67,7.55,2.67,12.25s-.84,9-2.55,12.48c-1.69,3.46-4,6.33-6.91,8.59-2.9,2.28-6.33,3.96-10.29,5.09-3.96,1.13-8.12,1.7-12.48,1.7h-38.54l65.45,94.76h40.71l-49.2-66.88c6.13-1.47,11.51-3.19,16.12-5.22Z"/>
    <polygon class="cls-1" points="749.86 185.28 793.3 185.28 793.3 335.21 824.92 335.21 824.92 185.28 868.36 185.28 868.36 153.66 749.86 153.66 749.86 185.28"/>
    <polygon class="cls-1" points="1297.65 153.66 1297.65 193.97 1297.56 193.97 1297.56 335.21 1329.18 335.21 1329.18 185.29 1381.5 185.29 1381.5 153.66 1297.65 153.66"/>
    <path class="cls-1" d="m997.16,207.11c-2.51-6.06-5.61-11.84-9.33-17.33-3.71-5.49-8-10.42-12.84-14.78-5.02-4.36-10.51-7.87-16.48-10.55-5.99-2.67-12.23-4.81-18.78-6.42-6.55-1.61-13.18-2.71-19.87-3.28-.79-.05-1.61-.27-3.91-.5-2.24-.21-5.92-.47-12.43-.59h0c-2.4-.05-5.22-.09-8.48-.11v.11h-8.75v31.62h8.75v.13c21.52-.11,25.85,1.56,29.06,2.19,5,.97,9.85,2.47,14.55,4.48,4.68,2.03,9.13,4.9,13.33,8.61,6.3,5.65,11.16,12.45,14.55,20.36,3.39,7.93,5.09,16.09,5.09,24.48,0,5-.61,9.97-1.83,14.9-1.2,4.93-2.94,9.58-5.2,13.94-2.28,4.36-5.13,8.36-8.61,12-3.48,3.62-7.39,6.65-11.75,9.08-7.44,4.05-14.64,6.51-21.58,7.41-6.94.88-14.46,1.33-22.55,1.33h-13.81v31.51h14.78c10.03,0,20.41-.77,31.15-2.31,10.74-1.52,20.48-4.72,29.2-9.58,6.94-3.87,13.13-8.68,18.55-14.42,5.4-5.72,9.94-12.03,13.56-18.9,3.64-6.85,6.42-14.13,8.38-21.81,1.94-7.66,2.91-15.39,2.91-23.14,0-6.46-.65-12.97-1.94-19.51-1.31-6.55-3.19-12.84-5.7-18.9Z"/>
    <polygon class="cls-1" points="1022.83 335.69 1141.84 335.69 1141.84 304.17 1056.51 304.17 1056.51 304.07 1054.45 304.07 1054.45 261.09 1118.03 261.09 1118.03 229.45 1054.45 229.45 1054.45 185.29 1141.84 185.29 1141.84 153.67 1022.83 153.67 1022.83 335.69"/>
    <polygon class="cls-2" points="1280.03 153.56 1248.39 153.56 1248.39 178.89 1280.03 224.31 1280.03 153.56"/>
    <polygon class="cls-3" points="1280.03 335.57 1280.43 335.57 1280.03 335 1280.03 335.57"/>
    <polygon class="cls-1" points="1276.59 274.73 1192.17 153.56 1192.15 153.56 1170.2 153.56 1170.09 153.56 1160.64 153.56 1160.64 335.57 1192.26 335.57 1192.26 209.03 1217.17 244.8 1280.03 335 1280.03 279.68 1276.59 274.73"/>
    <polygon class="cls-1" points="565.63 154.04 481.2 275.22 477.76 280.17 477.76 335.48 540.62 245.28 565.54 209.52 565.54 336.05 597.16 336.05 597.16 154.04 565.64 154.04 565.63 154.04"/>
  </g>
</svg>